# xmcd
#
# Track frame offsets:
#	150
#	16245
#	34159
#	51057
#	68146
#	81924
#	99533
#	111976
#	128570
#	142740
#	160842
#	174957
#	192685
#	210364
#	224122
#	236783
#
# Disc length: 3285 seconds
#
# Revision: 0
# Processed by: cddbd v1.5.2PL0 Copyright (c) Steve Scherf et al.
# Submitted via: EZCDAudioConverter 4.0.1.1
#
DISCID=e00cd310
DTITLE=Tommy Guerrero - Perpetual
DYEAR=2015
DGENRE=
TTITLE0=Water In Your Hands
TTITLE1=Thoughts Of Tomorrow
TTITLE2=At The Circles Edge
TTITLE3=The Fire Remains
TTITLE4=Battles Of The Forgotten
TTITLE5=Atacama
TTITLE6=Where The Sky Drops Into The Sea
TTITLE7=Time Burns Bright
TTITLE8=Los Oceanos De Arena
TTITLE9=The Spirit Form
TTITLE10=Signals From Points Beyond
TTITLE11=The Silence Of Thunder
TTITLE12=Throwing Stones At The Moon
TTITLE13=Embers Of Memory
TTITLE14=211*
TTITLE15=Sun Rays Like Stilts
EXTD=
EXTT0=
EXTT1=
EXTT2=
EXTT3=
EXTT4=
EXTT5=
EXTT6=
EXTT7=
EXTT8=
EXTT9=
EXTT10=
EXTT11=
EXTT12=
EXTT13=
EXTT14=
EXTT15=
PLAYORDER=
